<?xml version="1.0" encoding="UTF-8" standalone="no"?>
<svg
   xmlns:dc="http://purl.org/dc/elements/1.1/"
   xmlns:cc="http://creativecommons.org/ns#"
   xmlns:rdf="http://www.w3.org/1999/02/22-rdf-syntax-ns#"
   xmlns:svg="http://www.w3.org/2000/svg"
   xmlns="http://www.w3.org/2000/svg"
   xmlns:sodipodi="http://sodipodi.sourceforge.net/DTD/sodipodi-0.dtd"
   xmlns:inkscape="http://www.inkscape.org/namespaces/inkscape"
   viewBox="0 0 207.15166 119.06071"
   width="207.15166"
   height="119.06071"
   preserveAspectRatio="xMidYMid meet"
   version="1.1"
   id="svg863"
   sodipodi:docname="svgexport-0 (1).svg"
   inkscape:version="0.92.4 (5da689c313, 2019-01-14)">
  <metadata
     id="metadata867">
    <rdf:RDF>
      <cc:Work
         rdf:about="">
        <dc:format>image/svg+xml</dc:format>
        <dc:type
           rdf:resource="http://purl.org/dc/dcmitype/StillImage" />
      </cc:Work>
    </rdf:RDF>
  </metadata>
  <sodipodi:namedview
     pagecolor="#ffffff"
     bordercolor="#666666"
     borderopacity="1"
     objecttolerance="10"
     gridtolerance="10"
     guidetolerance="10"
     inkscape:pageopacity="0"
     inkscape:pageshadow="2"
     inkscape:window-width="1360"
     inkscape:window-height="706"
     id="namedview865"
     showgrid="false"
     inkscape:zoom="3.35625"
     inkscape:cx="103.57534"
     inkscape:cy="58.536025"
     inkscape:window-x="-8"
     inkscape:window-y="-8"
     inkscape:window-maximized="1"
     inkscape:current-layer="svg863" />
  <defs
     id="defs821">
    <clipPath
       id="__lottie_element_2">
      <rect
         width="240"
         height="160"
         x="0"
         y="0"
         id="rect815" />
    </clipPath>
    <clipPath
       id="__lottie_element_25">
      <path
         d="M 0,0 H 1920 V 1080 H 0 Z"
         id="path818"
         inkscape:connector-curvature="0" />
    </clipPath>
  </defs>
  <g
     clip-path="url(#__lottie_element_2)"
     id="g861"
     style="fill:#3a77ff;stroke:none;stroke-width:1px;fill-opacity:1"
     transform="translate(-16.424656,-19.475317)">
    <g
       clip-path="url(#__lottie_element_25)"
       transform="translate(-840,-460)"
       style="display:block;opacity:1;fill:#3a77ff;stroke:none;stroke-width:1px;fill-opacity:1"
       id="g859">
      <g
         transform="matrix(0.33000001,0,0,0.33000001,643.69971,361.29999)"
         style="display:block;opacity:1;fill:#3a77ff;stroke:none;stroke-width:1px;fill-opacity:1"
         id="g827">
        <g
           transform="translate(793.30103,542.63702)"
           id="g825"
           style="opacity:1;fill:#3a77ff;stroke:none;stroke-width:1px;fill-opacity:1">
          <path
             d="m 0,-148.67999 c -82.113998,0 -148.67999,66.565992 -148.67999,148.67999 0,82.114998 66.565992,148.67999 148.67999,148.67999 C 82.113998,148.67999 148.67999,82.114998 148.67999,0 148.67999,-82.113998 82.113998,-148.67999 0,-148.67999 Z M 0,44.421001 c -24.913,0 -45.109001,-20.196001 -45.109001,-45.10900102 C -45.109001,-25.601 -24.913,-44.527 0,-44.527 c 24.913,0 45.108002,18.926 45.108002,43.83899998 C 45.108002,24.225 24.913,44.421001 0,44.421001 Z"
             id="path823"
             inkscape:connector-curvature="0"
             style="fill:#3a77ff;fill-opacity:1;stroke:none;stroke-width:1px" />
        </g>
      </g>
      <g
         transform="matrix(0.33000001,0,0,0.33000001,642.70032,360.80566)"
         style="display:block;opacity:1;fill:#3a77ff;stroke:none;stroke-width:1px;fill-opacity:1"
         id="g833">
        <g
           transform="translate(1016.09,540)"
           id="g831"
           style="opacity:1;fill:#3a77ff;stroke:none;stroke-width:1px;fill-opacity:1">
          <path
             d="m 42.814999,180.395 c 0,0 -85.629998,0 -85.629998,0 0,0 0,-360.79 0,-360.79 0,0 85.629998,0 85.629998,0 0,0 0,360.79 0,360.79 z"
             id="path829"
             inkscape:connector-curvature="0"
             style="fill:#3a77ff;fill-opacity:1;stroke:none;stroke-width:1px" />
        </g>
      </g>
      <g
         transform="matrix(0.33000946,0,0,0.33000946,642.68884,361.29437)"
         style="display:block;opacity:1;fill:#3a77ff;stroke:none;stroke-width:1px;fill-opacity:1"
         id="g839">
        <g
           transform="translate(1185.13,540.04999)"
           id="g837"
           style="opacity:1;fill:#3a77ff;stroke:none;stroke-width:1px;fill-opacity:1">
          <path
             d="m -90.25,90.334 c 0,0 57.66,0 57.66,0 0,0 32.59,-32.589001 32.59,-32.589001 0,0 32.59,32.589001 32.59,32.589001 0,0 57.66,0 57.66,0 0,0 0,-57.029 0,-57.029 0,0 -32.904999,-32.90499999 -32.904999,-32.90499999 0,0 32.904999,-32.90500101 32.904999,-32.90500101 0,0 0,-57.828999 0,-57.828999 0,0 -56.860001,0 -56.860001,0 0,0 -33.389999,33.389 -33.389999,33.389 0,0 -33.389999,-33.389 -33.389999,-33.389 0,0 -56.860001,0 -56.860001,0 0,0 0,57.828999 0,57.828999 0,0 32.904999,32.90500101 32.904999,32.90500101 0,0 -32.904999,32.90499999 -32.904999,32.90499999 0,0 0,57.029 0,57.029 z"
             id="path835"
             inkscape:connector-curvature="0"
             style="fill:#3a77ff;fill-opacity:1;stroke:none;stroke-width:1px" />
        </g>
      </g>
      <g
         transform="matrix(0.33022031,0,0,0.33022031,643.5249,361.18103)"
         style="display:none;opacity:1;fill:#3a77ff;stroke:none;stroke-width:1px;fill-opacity:1"
         id="g845">
        <g
           transform="translate(793.30103,542.63702)"
           id="g843"
           style="opacity:1;fill:#3a77ff;stroke:none;stroke-width:1px;fill-opacity:1">
          <path
             d="m 0,-148.67999 c -82.113998,0 -148.67999,66.565992 -148.67999,148.67999 0,82.114998 66.565992,148.67999 148.67999,148.67999 C 82.113998,148.67999 148.67999,82.114998 148.67999,0 148.67999,-82.113998 82.113998,-148.67999 0,-148.67999 Z M -5.1729567e-5,43.322884 C -24.286917,43.322884 -43.975346,23.634455 -43.975346,-0.65241003 -43.975346,-24.939276 -24.286917,-43.423401 -5.1729567e-5,-43.423401 24.286814,-43.423401 43.974346,-24.939276 43.974346,-0.65241003 43.974346,23.634455 24.286814,43.322884 -5.1729567e-5,43.322884 Z"
             id="path841"
             inkscape:connector-curvature="0"
             style="fill:#3a77ff;fill-opacity:1;stroke:none;stroke-width:1px" />
        </g>
      </g>
      <g
         transform="matrix(0.33000001,0,0,0.33000001,642.70032,360.80566)"
         style="display:none;opacity:1;fill:#3a77ff;stroke:none;stroke-width:1px;fill-opacity:1"
         id="g851">
        <g
           transform="translate(1016.09,540)"
           id="g849"
           style="opacity:1;fill:#3a77ff;stroke:none;stroke-width:1px;fill-opacity:1">
          <path
             d="m 42.035221,184.6732 c 0,0 -84.070442,0 -84.070442,0 0,0 0,-369.3464 0,-369.3464 0,0 84.070442,0 84.070442,0 0,0 0,369.3464 0,369.3464 z"
             id="path847"
             inkscape:connector-curvature="0"
             style="fill:#3a77ff;fill-opacity:1;stroke:none;stroke-width:1px" />
        </g>
      </g>
      <g
         transform="matrix(0.37064692,0,0,0.37064692,594.5282,339.34814)"
         style="display:none;opacity:1;fill:#3a77ff;stroke:none;stroke-width:1px;fill-opacity:1"
         id="g857">
        <g
           transform="translate(1185.13,540.04999)"
           id="g855"
           style="opacity:1;fill:#3a77ff;stroke:none;stroke-width:1px;fill-opacity:1">
          <path
             d="m -90.25,90.334 c 0,0 47.345341,0 47.345341,0 0,0 42.904659,-42.90366 42.904659,-42.90366 0,0 42.904659,42.90366 42.904659,42.90366 0,0 47.345341,0 47.345341,0 0,0 0,-46.714341 0,-46.714341 0,0 -43.219658,-43.21965899 -43.219658,-43.21965899 0,0 43.219658,-43.21966001 43.219658,-43.21966001 0,0 0,-47.51434 0,-47.51434 0,0 -46.545341,0 -46.545341,0 0,0 -43.704659,43.703659 -43.704659,43.703659 0,0 -43.704659,-43.703659 -43.704659,-43.703659 0,0 -46.545341,0 -46.545341,0 0,0 0,47.51434 0,47.51434 0,0 43.219658,43.21966001 43.219658,43.21966001 0,0 -43.219658,43.21965899 -43.219658,43.21965899 0,0 0,46.714341 0,46.714341 z"
             id="path853"
             inkscape:connector-curvature="0"
             style="fill:#3a77ff;fill-opacity:1;stroke:none;stroke-width:1px" />
        </g>
      </g>
    </g>
  </g>
</svg>
